<svg xmlns="http://www.w3.org/2000/svg" viewBox="0 0 667.9 506.1"><defs><style>.cls-1,.cls-5{fill:#dee8f9;}.cls-2{fill:#c2d2ef;}.cls-3{fill:#c9d6f2;}.cls-4{fill:#465066;}.cls-5{opacity:0.25;}.cls-10,.cls-13,.cls-15,.cls-26,.cls-27,.cls-38,.cls-39,.cls-41,.cls-42,.cls-44,.cls-5,.cls-50,.cls-53,.cls-54,.cls-55,.cls-57,.cls-59,.cls-60,.cls-61{isolation:isolate;}.cls-6{fill:#9af0f4;}.cls-7{fill:#d0dcef;}.cls-8{fill:#eef0f8;}.cls-9{fill:#7cdee8;}.cls-10{fill:#fdfeff;opacity:0.42;}.cls-11{fill:#a3b5d3;}.cls-12{fill:#727d9b;}.cls-13,.cls-15,.cls-34,.cls-44,.cls-54,.cls-57{opacity:0.1;}.cls-14,.cls-15,.cls-26{fill:#29457c;}.cls-16{fill:#dadada;}.cls-17,.cls-57{fill:#4564c5;}.cls-18{fill:#fd698a;}.cls-19,.cls-55,.cls-59,.cls-60{fill:#f44e6e;}.cls-20{fill:#5e83cc;}.cls-21,.cls-39,.cls-61{fill:#fafcff;}.cls-22{fill:#3c5599;}.cls-23{fill:#e0a373;}.cls-24,.cls-52{fill:#f2f2f2;}.cls-25,.cls-54{fill:#4777c4;}.cls-26{opacity:0.15;}.cls-27,.cls-48{opacity:0.06;}.cls-28{fill:#b8becc;}.cls-29{opacity:0.5;}.cls-30{fill:#e3f3f4;}.cls-31{fill:#c4bcb2;}.cls-32{fill:#fff;}.cls-33{fill:#ccc;}.cls-35{fill:#819ba9;}.cls-36{fill:#9da8ba;}.cls-37{fill:#324e93;}.cls-38{opacity:0.2;}.cls-39{opacity:0.81;}.cls-40{fill:#59647c;}.cls-41{fill:#414141;opacity:0.09;}.cls-42,.cls-53{fill:#8099ce;}.cls-42{opacity:0.29;}.cls-43{fill:#b7c8ea;}.cls-44{fill:#010101;}.cls-45{fill:#fb375f;}.cls-46{fill:#b8bfc9;}.cls-47{fill:#9ba6bc;}.cls-49{fill:#7f89a0;}.cls-50{fill:#c5cbd8;opacity:0.08;}.cls-51{opacity:0.66;}.cls-52{fill-opacity:0;}.cls-53{opacity:0.45;}.cls-55{opacity:0.61;}.cls-56{fill:#f9587e;}.cls-58{fill:#3b475b;}.cls-59{opacity:0.55;}.cls-60{opacity:0.54;}.cls-61{opacity:0.86;}</style></defs><title>00 Home Final HeaderAsset 4</title><g id="Layer_2" data-name="Layer 2"><g id="Layer_1-2" data-name="Layer 1"><g id="Layer_2-2" data-name="Layer 2"><g id="Layer_1-2-2" data-name="Layer 1-2"><g id="Layer_2-2-2" data-name="Layer 2-2"><g id="Layer_1-2-2-2" data-name="Layer 1-2-2"><rect class="cls-1" x="74.1" y="218.9" width="41.1" height="121"/><rect class="cls-2" x="191.1" y="241.7" width="29.6" height="98.3"/><rect class="cls-3" x="266.4" y="144.7" width="42.5" height="195.3"/><rect class="cls-1" x="299.8" y="103" width="72.8" height="237"/><rect class="cls-1" x="317.1" y="85.7" width="55.4" height="17.3"/><rect class="cls-1" x="331.4" y="78.8" width="31.6" height="6.9"/><rect class="cls-2" x="555.2" y="203.3" width="42.5" height="136.6"/><rect class="cls-1" x="491.9" y="100" width="50.3" height="240"/><rect class="cls-1" x="430.5" y="119.2" width="50.3" height="220.8"/><rect class="cls-1" x="439.4" y="109.6" width="32.5" height="9.6"/><rect class="cls-1" x="126" y="160.6" width="42.5" height="179.4"/><rect class="cls-1" x="136.5" y="151.3" width="21.5" height="9.3"/><rect class="cls-1" x="165.4" y="187.8" width="36" height="152.2"/><rect class="cls-1" x="174.3" y="179.9" width="18.2" height="7.9"/><rect class="cls-1" x="351.3" y="129" width="42.5" height="211"/><rect class="cls-1" x="381.3" y="100" width="42.5" height="240"/><rect class="cls-3" x="470.8" y="160.4" width="52.1" height="179.6"/><rect class="cls-1" x="479.9" y="153" width="33.8" height="187"/><rect class="cls-3" x="485.6" y="130.2" width="22.4" height="22.8"/><ellipse class="cls-4" cx="255" cy="365.28" rx="39.3" ry="17.41"/><rect class="cls-3" x="331.9" y="142.8" width="44.6" height="197.1"/><rect class="cls-1" x="334.9" y="148.7" width="3" height="191.3"/><rect class="cls-1" x="340.7" y="148.7" width="3" height="191.3"/><rect class="cls-1" x="346.5" y="148.7" width="3" height="191.3"/><rect class="cls-1" x="352.3" y="148.7" width="3" height="191.3"/><rect class="cls-1" x="358" y="148.7" width="3" height="191.3"/><rect class="cls-1" x="363.8" y="148.7" width="3" height="191.3"/><rect class="cls-1" x="369.6" y="148.7" width="3" height="191.3"/><rect class="cls-3" x="94.4" y="184.4" width="49.1" height="155.6"/><rect class="cls-5" x="103.5" y="189" width="2.4" height="151"/><rect class="cls-5" x="112.8" y="189" width="2.4" height="151"/><rect class="cls-5" x="122.1" y="189" width="2.4" height="151"/><rect class="cls-5" x="131.4" y="189" width="2.4" height="151"/><rect class="cls-3" x="393.8" y="91.4" width="71.2" height="248.6"/><rect class="cls-3" x="403.2" y="80" width="52.4" height="11.4"/><rect class="cls-3" x="413" y="59.1" width="32.9" height="20.9"/><polygon class="cls-3" points="445.9 59.1 413 59.1 424.8 43.6 434 43.6 445.9 59.1"/><rect class="cls-3" x="424.9" y="22.2" width="9.1" height="21.4"/><rect class="cls-2" x="428.8" width="1.3" height="22.2"/><rect class="cls-1" x="403.2" y="91.4" width="9.7" height="248.6"/><rect class="cls-1" x="445.9" y="91.4" width="9.7" height="248.6"/><rect class="cls-1" x="418.1" y="91.4" width="3.7" height="248.6"/><rect class="cls-3" x="424.4" y="91.4" width="3.7" height="248.6"/><rect class="cls-1" x="430.8" y="91.4" width="3.7" height="248.6"/><rect class="cls-1" x="437.1" y="91.4" width="3.7" height="248.6"/><rect class="cls-1" x="403.2" y="80" width="52.4" height="3.5"/><polygon class="cls-1" points="415.6 55.6 413 59.1 445.9 59.1 443.3 55.6 415.6 55.6"/><rect class="cls-6" x="496.8" y="317.9" width="23" height="12.9"/><rect class="cls-7" x="174.3" y="227.8" width="32.9" height="112.2"/><rect class="cls-6" x="179.2" y="292.5" width="23" height="12.9"/><rect class="cls-6" x="179.2" y="317.9" width="23" height="12.9"/><rect class="cls-1" x="517" y="165.8" width="50.6" height="174.1"/><rect class="cls-8" x="523.7" y="172.28" width="4.79" height="7.55"/><rect class="cls-8" x="534.78" y="172.28" width="4.79" height="7.55"/><rect class="cls-8" x="545.38" y="172.28" width="4.79" height="7.55"/><rect class="cls-1" x="556" y="170.4" width="5.9" height="9.3"/><rect class="cls-8" x="556.21" y="172.28" width="4.79" height="7.55"/><rect class="cls-1" x="522.8" y="227" width="5.9" height="9.3"/><rect class="cls-2" x="556" y="227" width="5.9" height="9.3"/><rect class="cls-1" x="522.8" y="241.2" width="5.9" height="9.3"/><rect class="cls-1" x="531.1" y="241.2" width="5.9" height="9.3"/><rect class="cls-1" x="539.4" y="241.2" width="5.9" height="9.3"/><rect class="cls-2" x="556" y="241.2" width="5.9" height="9.3"/><rect class="cls-1" x="522.8" y="255.4" width="5.9" height="9.3"/><rect class="cls-1" x="531.1" y="255.4" width="5.9" height="9.3"/><rect class="cls-1" x="539.4" y="255.4" width="5.9" height="9.3"/><rect class="cls-1" x="547.7" y="255.4" width="5.9" height="9.3"/><rect class="cls-2" x="556" y="255.4" width="5.9" height="9.3"/><rect class="cls-1" x="539.4" y="269.5" width="5.9" height="9.3"/><rect class="cls-1" x="547.7" y="269.5" width="5.9" height="9.3"/><rect class="cls-2" x="556" y="269.5" width="5.9" height="9.3"/><rect class="cls-1" x="522.8" y="283.7" width="5.9" height="9.3"/><rect class="cls-1" x="531.1" y="283.7" width="5.9" height="9.3"/><rect class="cls-1" x="539.4" y="283.7" width="5.9" height="9.3"/><rect class="cls-1" x="547.7" y="283.7" width="5.9" height="9.3"/><rect class="cls-1" x="556" y="283.7" width="5.9" height="9.3"/><rect class="cls-1" x="522.8" y="297.8" width="5.9" height="9.3"/><rect class="cls-1" x="531.1" y="297.8" width="5.9" height="9.3"/><rect class="cls-1" x="539.4" y="297.8" width="5.9" height="9.3"/><rect class="cls-1" x="547.7" y="297.8" width="5.9" height="9.3"/><rect class="cls-1" x="556" y="297.8" width="5.9" height="9.3"/><rect class="cls-2" x="522.8" y="312" width="5.9" height="9.3"/><rect class="cls-2" x="531.1" y="312" width="5.9" height="9.3"/><rect class="cls-2" x="539.4" y="312" width="5.9" height="9.3"/><rect class="cls-2" x="547.7" y="312" width="5.9" height="9.3"/><rect class="cls-2" x="556" y="312" width="5.9" height="9.3"/><rect class="cls-2" x="522.8" y="326.2" width="5.9" height="9.3"/><rect class="cls-2" x="531.1" y="326.2" width="5.9" height="9.3"/><rect class="cls-2" x="539.4" y="326.2" width="5.9" height="9.3"/><rect class="cls-2" x="547.7" y="326.2" width="5.9" height="9.3"/><rect class="cls-2" x="556" y="326.2" width="5.9" height="9.3"/><rect class="cls-2" x="573.7" y="240.8" width="49.1" height="99.2"/><rect class="cls-1" x="587.2" y="232.5" width="22" height="107.4"/><rect class="cls-6" x="576.4" y="244.7" width="8.3" height="2.2"/><rect class="cls-6" x="576.4" y="252.5" width="8.3" height="2.2"/><rect class="cls-6" x="576.4" y="260.3" width="8.3" height="2.2"/><rect class="cls-6" x="576.4" y="268.1" width="8.3" height="2.2"/><rect class="cls-6" x="576.4" y="275.9" width="8.3" height="2.2"/><rect class="cls-6" x="576.4" y="283.7" width="8.3" height="2.2"/><rect class="cls-6" x="576.4" y="291.5" width="8.3" height="2.2"/><rect class="cls-6" x="576.4" y="299.2" width="8.3" height="2.2"/><rect class="cls-6" x="576.4" y="307" width="8.3" height="2.2"/><rect class="cls-6" x="576.4" y="314.8" width="8.3" height="2.2"/><rect class="cls-6" x="576.4" y="322.6" width="8.3" height="2.2"/><rect class="cls-6" x="576.4" y="330.4" width="8.3" height="2.2"/><rect class="cls-2" x="611.8" y="244.7" width="8.3" height="2.2"/><rect class="cls-2" x="611.8" y="252.5" width="8.3" height="2.2"/><rect class="cls-2" x="611.8" y="260.3" width="8.3" height="2.2"/><rect class="cls-2" x="611.8" y="268.1" width="8.3" height="2.2"/><rect class="cls-2" x="611.8" y="275.9" width="8.3" height="2.2"/><rect class="cls-2" x="611.8" y="283.7" width="8.3" height="2.2"/><rect class="cls-2" x="611.8" y="291.5" width="8.3" height="2.2"/><rect class="cls-2" x="611.8" y="299.2" width="8.3" height="2.2"/><rect class="cls-2" x="611.8" y="307" width="8.3" height="2.2"/><rect class="cls-6" x="611.8" y="314.8" width="8.3" height="2.2"/><rect class="cls-6" x="611.8" y="322.6" width="8.3" height="2.2"/><rect class="cls-6" x="611.8" y="330.4" width="8.3" height="2.2"/><rect class="cls-6" x="290.3" y="278.8" width="4" height="10.6"/><rect class="cls-6" x="290.3" y="291.5" width="4" height="10.6"/><rect class="cls-6" x="290.3" y="304.2" width="4" height="10.6"/><rect class="cls-6" x="296.5" y="304.2" width="4" height="10.6"/><rect class="cls-6" x="302.7" y="304.2" width="4" height="10.6"/><rect class="cls-6" x="308.8" y="304.2" width="4" height="10.6"/><rect class="cls-6" x="290.3" y="316.9" width="4" height="10.6"/><rect class="cls-6" x="296.5" y="316.9" width="4" height="10.6"/><rect class="cls-6" x="302.7" y="316.9" width="4" height="10.6"/><rect class="cls-6" x="308.8" y="316.9" width="4" height="10.6"/><rect class="cls-9" x="321" y="304.2" width="4" height="10.6"/><rect class="cls-9" x="321" y="316.9" width="4" height="10.6"/><rect class="cls-1" x="215" y="117.5" width="56.2" height="222.5"/><rect class="cls-1" x="219.5" y="124.3" width="34.5" height="4.7"/><rect class="cls-1" x="257.9" y="124.3" width="8.8" height="4.7"/><rect class="cls-1" x="219.5" y="137.8" width="34.5" height="4.7"/><rect class="cls-1" x="257.9" y="137.8" width="8.8" height="4.7"/><rect class="cls-1" x="219.5" y="151.3" width="34.5" height="4.7"/><rect class="cls-1" x="219.5" y="164.7" width="34.5" height="4.7"/><rect class="cls-1" x="257.9" y="164.7" width="8.8" height="4.7"/><rect class="cls-1" x="219.5" y="178.2" width="34.5" height="4.7"/><rect class="cls-1" x="257.9" y="178.2" width="8.8" height="4.7"/><rect class="cls-1" x="219.5" y="191.7" width="34.5" height="4.7"/><rect class="cls-1" x="257.9" y="191.7" width="8.8" height="4.7"/><rect class="cls-1" x="219.5" y="205.2" width="34.5" height="4.7"/><rect class="cls-1" x="219.5" y="218.7" width="34.5" height="4.7"/><rect class="cls-1" x="219.5" y="232.2" width="34.5" height="4.7"/><rect class="cls-1" x="219.5" y="245.7" width="34.5" height="4.7"/><rect class="cls-1" x="219.5" y="259.2" width="34.5" height="4.7"/><rect class="cls-6" x="219.5" y="272.7" width="34.5" height="4.7"/><rect class="cls-6" x="257.9" y="272.7" width="8.8" height="4.7"/><rect class="cls-6" x="219.5" y="299.7" width="34.5" height="4.7"/><rect class="cls-6" x="257.9" y="299.7" width="8.8" height="4.7"/><rect class="cls-6" x="219.5" y="313.2" width="34.5" height="4.7"/><rect class="cls-6" x="257.9" y="313.2" width="8.8" height="4.7"/><rect class="cls-6" x="219.5" y="326.7" width="34.5" height="4.7"/><rect class="cls-6" x="257.9" y="326.7" width="8.8" height="4.7"/><rect class="cls-9" x="274.4" y="270.7" width="3.1" height="5.4"/><rect class="cls-9" x="281.2" y="270.7" width="3.1" height="5.4"/><rect class="cls-9" x="287.9" y="270.7" width="3.1" height="5.4"/><rect class="cls-9" x="274.4" y="278.3" width="3.1" height="5.4"/><rect class="cls-9" x="281.2" y="278.3" width="3.1" height="5.4"/><rect class="cls-9" x="287.9" y="278.3" width="3.1" height="5.4"/><rect class="cls-9" x="274.4" y="285.8" width="3.1" height="5.4"/><rect class="cls-9" x="281.2" y="285.8" width="3.1" height="5.4"/><rect class="cls-9" x="287.9" y="285.8" width="3.1" height="5.4"/><rect class="cls-9" x="281.2" y="293.3" width="3.1" height="5.4"/><rect class="cls-9" x="287.9" y="293.3" width="3.1" height="5.4"/><rect class="cls-9" x="274.4" y="300.9" width="3.1" height="5.4"/><rect class="cls-9" x="281.2" y="300.9" width="3.1" height="5.4"/><rect class="cls-9" x="287.9" y="300.9" width="3.1" height="5.4"/><rect class="cls-9" x="294.7" y="300.9" width="3.1" height="5.4"/><rect class="cls-9" x="301.5" y="300.9" width="3.1" height="5.4"/><rect class="cls-9" x="274.4" y="308.4" width="3.1" height="5.4"/><rect class="cls-9" x="281.2" y="308.4" width="3.1" height="5.4"/><rect class="cls-9" x="287.9" y="308.4" width="3.1" height="5.4"/><rect class="cls-9" x="294.7" y="308.4" width="3.1" height="5.4"/><rect class="cls-9" x="301.5" y="308.4" width="3.1" height="5.4"/><rect class="cls-9" x="274.4" y="315.9" width="3.1" height="5.4"/><rect class="cls-9" x="281.2" y="315.9" width="3.1" height="5.4"/><rect class="cls-9" x="287.9" y="315.9" width="3.1" height="5.4"/><rect class="cls-9" x="294.7" y="315.9" width="3.1" height="5.4"/><rect class="cls-9" x="301.5" y="315.9" width="3.1" height="5.4"/><rect class="cls-9" x="274.4" y="323.5" width="3.1" height="5.4"/><rect class="cls-9" x="281.2" y="323.5" width="3.1" height="5.4"/><rect class="cls-9" x="287.9" y="323.5" width="3.1" height="5.4"/><rect class="cls-9" x="294.7" y="323.5" width="3.1" height="5.4"/><rect class="cls-9" x="301.5" y="323.5" width="3.1" height="5.4"/><rect class="cls-9" x="274.4" y="331" width="3.1" height="5.4"/><rect class="cls-9" x="281.2" y="331" width="3.1" height="5.4"/><rect class="cls-9" x="287.9" y="331" width="3.1" height="5.4"/><rect class="cls-9" x="294.7" y="331" width="3.1" height="5.4"/><rect class="cls-9" x="301.5" y="331" width="3.1" height="5.4"/><rect class="cls-9" x="129.9" y="327.8" width="2.1" height="6.4"/><rect class="cls-9" x="129.9" y="313.7" width="2.1" height="6.4"/><rect class="cls-9" x="129.9" y="299.7" width="2.1" height="6.4"/><rect class="cls-9" x="132.8" y="327.8" width="2.1" height="6.4"/><rect class="cls-9" x="132.8" y="313.7" width="2.1" height="6.4"/><rect class="cls-9" x="132.8" y="299.7" width="2.1" height="6.4"/><rect class="cls-9" x="135.7" y="327.8" width="2.1" height="6.4"/><rect class="cls-9" x="135.7" y="313.7" width="2.1" height="6.4"/><rect class="cls-9" x="135.7" y="299.7" width="2.1" height="6.4"/><rect class="cls-9" x="138.6" y="327.8" width="2.1" height="6.4"/><rect class="cls-8" x="523.7" y="185.28" width="4.79" height="7.55"/><rect class="cls-8" x="534.78" y="185.28" width="4.79" height="7.55"/><rect class="cls-8" x="545.38" y="185.28" width="4.79" height="7.55"/><rect class="cls-8" x="556.21" y="185.28" width="4.79" height="7.55"/><rect class="cls-9" x="138.6" y="313.7" width="2.1" height="6.4"/><rect class="cls-9" x="138.6" y="299.7" width="2.1" height="6.4"/><rect class="cls-9" x="141.5" y="327.8" width="2.1" height="6.4"/><rect class="cls-9" x="141.5" y="313.7" width="2.1" height="6.4"/><rect class="cls-9" x="141.5" y="299.7" width="2.1" height="6.4"/><rect class="cls-9" x="144.4" y="327.8" width="2.1" height="6.4"/><rect class="cls-9" x="144.4" y="313.7" width="2.1" height="6.4"/><rect class="cls-9" x="144.4" y="299.7" width="2.1" height="6.4"/><rect class="cls-9" x="147.3" y="327.8" width="2.1" height="6.4"/><rect class="cls-9" x="147.3" y="313.7" width="2.1" height="6.4"/><rect class="cls-9" x="147.3" y="285.6" width="2.1" height="6.4"/><rect class="cls-9" x="150.1" y="327.8" width="2.1" height="6.4"/><rect class="cls-9" x="150.1" y="313.7" width="2.1" height="6.4"/><rect class="cls-9" x="150.1" y="285.6" width="2.1" height="6.4"/><rect class="cls-9" x="150.1" y="271.5" width="2.1" height="6.4"/><rect class="cls-9" x="153" y="327.8" width="2.1" height="6.4"/><rect class="cls-9" x="153" y="313.7" width="2.1" height="6.4"/><rect class="cls-9" x="153" y="285.6" width="2.1" height="6.4"/><rect class="cls-9" x="153" y="271.5" width="2.1" height="6.4"/><rect class="cls-9" x="155.9" y="327.8" width="2.1" height="6.4"/><rect class="cls-9" x="155.9" y="313.7" width="2.1" height="6.4"/><rect class="cls-9" x="155.9" y="299.7" width="2.1" height="6.4"/><rect class="cls-9" x="155.9" y="285.6" width="2.1" height="6.4"/><rect class="cls-9" x="155.9" y="271.5" width="2.1" height="6.4"/><rect class="cls-9" x="158.8" y="327.8" width="2.1" height="6.4"/><rect class="cls-9" x="158.8" y="313.7" width="2.1" height="6.4"/><rect class="cls-9" x="158.8" y="299.7" width="2.1" height="6.4"/><rect class="cls-9" x="158.8" y="285.6" width="2.1" height="6.4"/><rect class="cls-9" x="158.8" y="271.5" width="2.1" height="6.4"/><rect class="cls-6" x="165.7" y="290.9" width="73" height="49.1"/><rect class="cls-9" x="234.6" y="290.9" width="4.1" height="49.1"/><rect class="cls-9" x="223.1" y="290.9" width="4.1" height="49.1"/><rect class="cls-9" x="211.6" y="290.9" width="4.1" height="49.1"/><rect class="cls-9" x="200.2" y="290.9" width="4.1" height="49.1"/><rect class="cls-9" x="188.7" y="290.9" width="4.1" height="49.1"/><rect class="cls-9" x="177.2" y="290.9" width="4.1" height="49.1"/><rect class="cls-9" x="165.7" y="290.9" width="4.1" height="49.1"/><g id="Layer_2-2-2-2" data-name="Layer 2-2-2"><g id="Layer_1-2-2-2-2" data-name="Layer 1-2-2-2"><g id="Layer_2-2-2-2-2" data-name="Layer 2-2-2-2"><g id="Layer_1-2-2-2-2-2" data-name="Layer 1-2-2-2-2"><g id="Website_refine-Copy" data-name="Website refine-Copy"><g id="Home-Copy-7"><g id="final-header-Asset-44"><ellipse id="Oval" class="cls-1" cx="449.9" cy="238.8" rx="4.6" ry="4.9"/><path id="Shape-3" class="cls-2" d="M559.4,506.1q54.3-95.55,108.5-191.2a2559.28,2559.28,0,0,0-265.4-17.5c-48.4-.7-85.1.1-108.5.7-74.6,1.7-174.6,6.6-294,19.7"/><ellipse id="Oval-2" class="cls-10" cx="205.08" cy="277.9" rx="46.5" ry="19.4" transform="translate(-17.83 14.09) rotate(-3.77)"/><path id="Shape-4" class="cls-11" d="M123.9,308.65A13.06,13.06,0,1,0,136.34,295h0a12.94,12.94,0,0,0-12.41,13.45C123.89,308.52,123.9,308.58,123.9,308.65Z"/><path id="Shape-5" class="cls-11" d="M243.9,303.15a13.22,13.22,0,0,0,13.7,12.46A13,13,0,0,0,270,302v0a13.22,13.22,0,0,0-13.7-12.46A12.94,12.94,0,0,0,243.89,303C243.89,303,243.9,303.1,243.9,303.15Z"/><path id="Shape-6" class="cls-11" d="M100.8,316.3c1.1.7,14.7-.5,18.4-.9a16.65,16.65,0,0,1-.8-5c-.5-11.1,7.4-20.4,17.7-20.9s19,8.2,19.5,19.2a22.25,22.25,0,0,1-.6,6.3l84.4-4.4a25.62,25.62,0,0,1-1.1-6.2c-.5-11.1,7.4-20.8,17.7-21.3s19,8,19.5,19.1a26.2,26.2,0,0,1-.1,2.8l18.5-2.2s.8-10.3.5-17.8-1.2-15.5-3-17.1-24.3-4.8-24.3-4.8-21.2-15.3-28.8-15.6c-2.2-.1-20.3-1.2-37.2.3-7.7.7-15.1,2-20.6,4.1-17.6,6.9-35.8,23.7-35.8,23.7s-3.6.7-5.9,1.1-20.1,3.4-33.4,12.5a13.73,13.73,0,0,0-4.7,8.1C100.1,299.7,99.6,315.5,100.8,316.3ZM210,272.9s.3-16.2.3-17.3a2.19,2.19,0,0,1,1.8-2.2c.9,0,20.8-1.8,24,1s3.5,15.1,3.5,15.1ZM163.3,271a77,77,0,0,1,18-11.8c7.1-3.2,21.2-5.3,22.2-5.3s1.7.4,1.6,1.2-2.6,18.9-2.6,18.9l-34.6,2.7Z"/><path id="Shape-41" class="cls-12" d="M592,253.3H574.8a5.94,5.94,0,0,0-5.7,6.17V270.3a6,6,0,0,0,5.7,6.2H592a6,6,0,0,0,5.8-6.19h0V259.5a6,6,0,0,0-5.79-6.2Z"/><path id="Shape-42" class="cls-13" d="M593.2,262.2c.2-1.7.8-3.8,0-5.4-.1-.1-.1-.2-.2-.4a11.94,11.94,0,0,0-5.8-3.2H574.8a5.94,5.94,0,0,0-5.7,6.17V270.2a6,6,0,0,0,5.7,6.2H592a5.27,5.27,0,0,0,2.4-.6,18.52,18.52,0,0,1-1.5-7.3Q592.9,265.35,593.2,262.2Z"/><path id="Shape-43" class="cls-14" d="M558,267l-.4,19.73,4.46,90.2,7.34,0,2.62-91,1.48-.11,8.7,91.15h6.3l.1-91.92L588,266.9S558.19,267.12,558,267Z"/><polygon id="Shape-44" class="cls-15" points="558.43 283.13 585.31 284.56 587.3 376.31 588.5 376.93 588.15 294.92 587.87 282.9 558.43 283.13"/><polygon id="Shape-45" class="cls-13" points="587 253.9 587.6 233.6 586.6 228.8 586.3 233.9 585 253.8 586.3 270.3 588.4 270.3 588.3 266.5 587 253.9"/><polygon id="Shape-46" class="cls-13" points="567.13 376.66 569.29 376.36 572.1 287.6 571.6 287.6 567.13 376.66"/><path id="Shape-47" class="cls-16" d="M588.2,266.3h0c-.8,4.3-1.7,8.7-1.7,8.7a3.18,3.18,0,0,1,2.2,1.4Z"/><path id="Shape-48" class="cls-17" d="M594.6,218.6a8.22,8.22,0,0,0-5.7-5.3l-15.2-6.2V205l-.1,1.9-.2.1-.2-.1h-.1v.1l.1-.1-15.9,7.2a8.43,8.43,0,0,0-5.7,5.3s-2.1,24.8-1.8,33.1c.4,4.3,1,8.6,1.8,12.8.7,3.8,3.8,14.6,3.8,14.6l4.8-2.3.2-3.08-1.87.49-.93-8.61.5-7.5c-.5-3.7-1-8.3-1-8.3s1.1-11,1-13.3l.3,16.5-.3,5.1c.2,1.3.3,2.5.4,3.3.5,3.6,4.71,10.65,4.81,11.95,9.5-.1,14.79-.39,24.29-.39l.9,2.54a3.67,3.67,0,0,0-2.2-1.4s.9-4.4,1.7-8.8l-1.2-12.4.6-20.1,3.1,16.5s-.7,6.7-1.1,8.8c-.3,1.6-.8,4.3-1.4,7.1h0l.4,10.1a5.56,5.56,0,0,0,2,1.7s4.1-10.7,5.1-14.6c.6-2.5,1.9-9.2,2.4-11.8a8.13,8.13,0,0,0,.1-2.2Z"/><path id="Shape-49" class="cls-16" d="M558.3,258.9l-.5,7.5-.2,11.1h2.8c-.1-1.3-1.1-11.6-1.6-15.2C558.6,261.4,558.5,260.2,558.3,258.9Z"/><path id="Shape-50" class="cls-13" d="M594.6,218.6a8.22,8.22,0,0,0-5.7-5.3l-11.4-4.6c.2.1.4.3.6.4a3.28,3.28,0,0,1,1,1.3,2.32,2.32,0,0,1,1.4.4c2.6,1.7,6.1,2.1,8.3,4.4a16.68,16.68,0,0,1,3.8,6.9,98.81,98.81,0,0,1,3.3,21c.7,12.3-2.2,22.7-6.5,34.1a4.6,4.6,0,0,0,1.2.9s4.1-10.7,5.1-14.6c.6-2.5,1.9-9.2,2.5-11.8a8.13,8.13,0,0,0,.1-2.2Z"/><path id="Shape-52" class="cls-18" d="M580.1,187.1,563,188.7l1.5,8.4c.4,4.7,2,12,6.4,11.6s10.2-8.1,9.8-12.9Z"/><path id="Shape-53" class="cls-19" d="M567.8,211.9c1,7.1,8.8.1,9.5-.8l.4-11.6-4.8,3.3-4.7-2.5Z"/><path id="Shape-54" class="cls-20" d="M572.8,181.1l-6,.4a10.48,10.48,0,0,1-2.5.1,12.24,12.24,0,0,1-2.7-.2l-2.9-.6c.5,6.6,4.4,7.8,4.4,7.8l10.4-.9c2.6-.2,2.7,2.5,2.7,2.5h0l.2,2.7,1.3-.1s.4-1.1,1.1-1.2c.5,0,1.2-.1,1.3,1.7.4,4.8-1.8,4.6-1.8,4.6l-.8,6.4c3.6-2.5,4-10.6,4-10.6L581,187C580.2,179.2,572.8,181.1,572.8,181.1Z"/><path id="Shape-55" class="cls-13" d="M568,205.9V207s4.6,2,7.7-2C575.6,205,571.3,207.6,568,205.9Z"/><path id="Shape-56" class="cls-12" d="M582.26,376.31l-4.7,3.3a4.38,4.38,0,0,0-4.1,3.7h16a13.76,13.76,0,0,0-1-7Z"/><path id="Shape-57" class="cls-13" d="M587.66,376.31a5.92,5.92,0,0,1,.3,2,12.79,12.79,0,0,1-.3,4.4,2.16,2.16,0,0,0-.2.7h2a13.76,13.76,0,0,0-1-7Z"/><path id="Shape-58" class="cls-12" d="M562.29,376.36l-7.2,3.3a4.38,4.38,0,0,0-4.1,3.7h19.3a13.87,13.87,0,0,0-1-7Z"/><path id="Shape-59" class="cls-13" d="M567.89,376.36a4.91,4.91,0,0,1,.3,1.7,7.36,7.36,0,0,1-1.7,5.3h3.7a13.87,13.87,0,0,0-1-7Z"/><path id="Shape-60" class="cls-16" d="M569.9,213.41c-7.8-1.7-10.5,5.9-12.8,13.1-.7,2,2.5,4.4,2.3,9-.2,6.3.5,9.3.9,15.2l-1.87,22h0s18,4,28.07-1.86c-1.1-10.5,0-16.59.2-22.69.3-9.9,1.3-14.6.3-21C586.5,224.21,577.3,215.11,569.9,213.41Z"/><g id="collar"><path id="Shape-61" class="cls-21" d="M569.9,214.9l2.6,3.7s6.1-2.8,7.4-7.8l-2.5-2.8S575.3,214.2,569.9,214.9Z"/><path id="Shape-62" class="cls-21" d="M567.9,209l-1.6,2.9a34.73,34.73,0,0,0,1.2,6.4l2.4-3.3C567.7,212.8,567.9,209,567.9,209Z"/></g><path id="Shape-63" class="cls-17" d="M577.7,214.34a43.84,43.84,0,0,0-2,5.29c-2.3,7.24-6.3,20.23-6.4,20.88-.6,3.25-1.1,5.57-1.3,7.24-.8,8.54-.8,20.42-.7,24.13.3,5.1,3.8,7,7.9,7.42s11.7.19,13.8-1.11c0,0-1.2-23.48-1.4-31.28.1-6.12-.8-17.44,5.7-30,.5-.93-1.7-2.32-2.6-2.79-2.9-1.48-11.8-4.27-12.5-4.64"/><polygon id="Shape-64" class="cls-19" points="555.9 279.7 557.4 283 562.8 280.3 560.3 277.6 555.9 279.7"/><polygon id="Shape-65" class="cls-18" points="581.7 279.6 588.4 282.9 590.7 278.1 586.9 274.9 581.7 279.6"/><path id="Shape-66" class="cls-20" d="M578.2,191.8h-1.9c0,10.2-3,10.5-7.6,10.6-2.3.1-3.3-.8-3.7-1.9a13.65,13.65,0,0,1-.4-1.9s-1.3,10.6,4.7,10.7c9.3.1,9.2-10.9,9.2-10.9Z"/><path id="Shape-67" class="cls-20" d="M569.7,199.7l-2.2.1a3.16,3.16,0,0,0-2.8,3.3v.9a3,3,0,0,0,3,3h.1l2.2-.1a3.2,3.2,0,0,0,2.8-3.4v-.8a2.91,2.91,0,0,0-2.81-3Z"/><path id="Shape-68" class="cls-18" d="M568.9,204.1c1.2-.1,2.1-.1,2-1.5l-4.2.3C566.9,204.3,567.8,204.2,568.9,204.1Z"/><path id="Shape-69" class="cls-22" d="M576.8,213.8c-2.3,4.5-4.6,6.9-6.1,13.7-.8,3.9-1.8,15.6-1.8,15.6l-.8,5.2,1.7-5.3s3.5-12.8,5.9-17.2c1.6-2.9,3.1-5.4,3.1-5.4l-2.4-1.4,3.3-.8s1.3-3.4,1.5-4.2a15.77,15.77,0,0,0,.3-2.9l-3.5-2.3A14.65,14.65,0,0,1,576.8,213.8Z"/><path id="Shape-70" class="cls-17" d="M555.7,217.87c-2.1,5.56,3.1,24.87,2.8,30.53-.3,6.4-1,8-1.2,13.08-.3,8.45-.2,16.62-.2,16.62s7.8,1.39,10.3-4.46c.2-4.45.1-8.91.2-13.36.1-6.5.9-9.28.4-15.78-.5-7-.6-11.32-1.2-16.43s0-16.61,1-18.37c-2.8,1.48-2.4.93-6.7,3.06C559.2,213.78,557.6,213.23,555.7,217.87Z"/><path id="Shape-71" class="cls-13" d="M567.1,260.56c0,3.24.3,8.91-.6,12.62a10.14,10.14,0,0,1-1.4,2.69,7,7,0,0,1-3.3,2.13,7.85,7.85,0,0,0,5.8-4.27c.2-4.45.5-8.9.3-13.45a105.17,105.17,0,0,1,0-11.23C566.9,254.06,567,255.36,567.1,260.56Z"/><path id="Shape-72" class="cls-12" d="M565.6,210.4l-4.6,1.7s.2,13.3,2.8,19.8c6,15.1,25,28.4,25,28.4l-.4-5.7c-8-6-16.3-15.2-19.7-22.9A37,37,0,0,1,565.6,210.4Z"/><polygon id="Shape-85" class="cls-23" points="491.4 257.7 491.2 257.7 491.4 257.2 491.4 257.7"/><path id="Shape-149" class="cls-24" d="M357.8,213.44s-5,6.6-11,3.8a66.78,66.78,0,0,0,10.06-4.9Z"/><path id="Shape-157" class="cls-8" d="M346.71,248.65l1.93.39.39,4.43-2.51.58C345,251.64,346.71,248.65,346.71,248.65Z"/><path class="cls-25" d="M345.1,201.17a10.19,10.19,0,0,0-1.38,5.78c.23,2.81,1.71,3.59,1.53,6.21-.14,2.16-1.21,2.58-1.83,5a12.09,12.09,0,0,0,.42,6.87l6.28-4.36-2.75-13.84Q346.25,204,345.1,201.17Z"/><path id="Shape-117" class="cls-24" d="M347.66,219.54c2.6-.86,12.33-1.92,15.9.2s3.56,6.45,3.56,6.45l-21.74-1.77C345.26,224.33,345.16,220.28,347.66,219.54Z"/><path id="Shape-118" class="cls-26" d="M349.11,220.54c2.12-.67,10.4-1.44,13.29.29s-2.6,2.79-2.6,2.79H349.59C349.59,223.54,347,221.25,349.11,220.54Z"/><path id="Shape-119" class="cls-18" d="M330.53,285.53a37.74,37.74,0,0,1,.39-4.24c.09-.48.77-1.64,1.06-2.41l3.75-19.35,1.93-27.63,7.89-.29-4,27.73s-1,5.49-1.35,7.12a111.14,111.14,0,0,1-4.72,11.85,10.14,10.14,0,0,1,.39,3.75c-.19.87-.58,3.28-.68,3.95l.24,1.52.77,2a1,1,0,0,1-.29,1.25L334.52,289v.39l.48,2.21s.19.87-.48,1.16l-.39-.77V292a1,1,0,0,1-.57,1.16l-1.35-2.89.19,1.06s.19.87-.48,1.16l-1-2-.49-4.72h0A.35.35,0,0,1,330.53,285.53Z"/><path id="Shape-120" class="cls-8" d="M337.56,231.94l7.89-.29-4.06,27.82s-1,5.49-1.34,7.13c-.68,2.41-1.83,10.5-3.76,9.73-1.25,0-3.18.09-4.14-.87-1.35-1.45,3.47-15.89,3.47-15.89Z"/><path id="Shape-122" class="cls-18" d="M341.39,277.82l12,.1-2.21,37.8s.29,6.44.86,11.14c1.06,9.3-1,61-1,61l-4.91.18-4.61-68.51s-.87-25.42-.67-29.64C340.93,286,341.22,279,341.39,277.82Z"/><path id="Shape-123" class="cls-27" d="M341.39,275.17l12,.1-2.21,39.48s.29,6.75.86,11.66c.78,7.32-.09,52.1-.67,59.71-.1-2.41-.29-4.82-.38-7.22-.29-6.65-.1-41.51-.68-48.16-.1-1.35-.29-2.6-.48-3.85-.19-6.74-.67-13.48-.77-20.13a8.35,8.35,0,0,0-.68-4.62c-1.63-3-4.8-3-7.4-4.05h-.1c-.09-4.72-.19-8.76-.09-10.3C340.93,283.74,341.22,276.42,341.39,275.17Z"/><path id="Shape-124" class="cls-18" d="M365.48,287.39c0,4.7-.38,25-.38,26.26,0,2.89.86,10,1.25,14.08.29,2.4,1.35,59,1.35,59l-4.91,1.09-7.71-70.17-2.79-28.89-1.16-10.88h12.62A31.81,31.81,0,0,1,365.48,287.39Z"/><path id="Shape-125" class="cls-27" d="M365.48,285.19c0,4.91-.38,26.1-.38,27.45,0,3.08.86,10.49,1.25,14.73.1,1.35,1,53.26,1.35,61.74-.68-5.11-2.12-52.78-3-57.89-.87-5.39-.48-10.69-1.73-15.89-.19-3.56.38-7.12-1.06-10.59-1.06-2.7-3.37-5.49-6.17-5.78a3,3,0,0,0-1.34,0,1.7,1.7,0,0,0-1,0l-1.15-12.33-1.16-11.36h12.62A34.28,34.28,0,0,1,365.48,285.19Z"/><path id="Shape-126" class="cls-4" d="M358.57,389.71l4.07-2.75,5.27-.24a11.36,11.36,0,0,1,1.1,5.74H355.12S355.2,390.19,358.57,389.71Z"/><path id="Shape-129" class="cls-4" d="M339.5,390.24l6.53-2.91,5.27-.09a9.26,9.26,0,0,1,1.45,5.75H336C336,392.91,336.2,390.75,339.5,390.24Z"/><path id="Shape-132" class="cls-17" d="M343.15,258.23h20.41s5.1,21.37,5.29,32.83.29,29,.29,29-3.18,1.16-13.87,1.16a160.68,160.68,0,0,1-16.55-1.16L339,300.8C339.39,274.59,343.15,258.23,343.15,258.23Z"/><path id="Shape-133" class="cls-13" d="M363.07,258.23s5,13.47,5.21,20.7c.09,3.56.19,9.82.19,15.41-1.25-4.14-8.09-5.59-11.75-6.84-.1-.48-3.66-12.43-4.14-12.81-3.66-2.7-8.09-3.56-12.32-4.24a76.41,76.41,0,0,1,2.79-12.22Z"/><path id="Shape-134" class="cls-8" d="M337.56,231.94s0-5.2,4.34-6.55c0,0,1.15-.77,7.4-2.6,1.83-.58,6.36-.58,8.57-.77,0,0,10.6,4.14,11.08,5.2,0,0-3,7.41-4.43,11.84,0,0-.58,12,0,16.47.29,2.6,2.89,17.33,2.89,17.33l-27-3.18s-1.92-2,.87-11.26c1-3.27,0-15.7,0-17.43v-.29s.09-1.25.29-2.89a24.3,24.3,0,0,0-4.34-1.92Z"/><path id="Shape-135" class="cls-15" d="M355.38,261.21a39,39,0,0,0,2.41-7.12,53.07,53.07,0,0,1,3.18-8.48c1.92-4.23,3.37-9,5.87-12.9-.77,2.12-1.64,4.52-2.31,6.35,0,0-.58,12,0,16.47.29,2.6,2.89,17.33,2.89,17.33l-19.94-2.41C350.55,267.75,353.54,264.87,355.38,261.21Z"/><path id="Shape-136" class="cls-19" d="M350.26,213.83l6.55-.19,1.06,8.28,3.86,1.45c-.1,2.31-6.17,4-8.58,4s-4.71-2.12-4.62-4.43l1.54-.39Z"/><path id="Shape-146" class="cls-24" d="M365.25,224.83a11.4,11.4,0,0,1-12.1,2.54,89,89,0,0,0,8.28-4.12C363.93,222.05,365.15,224.73,365.25,224.83Z"/><path id="Shape-137" class="cls-18" d="M359.79,212.65c-.08,3.47-6.47,7.7-8.8,7.95-.81.09-1.53.17-1.71-.58-.93-3-2.07-6.69-2.7-8.81l-.27-9.22,15.92,4.13Z"/><path id="Shape-138" class="cls-13" d="M357.3,217l.14,1.1c-1.06.87-6.65,3.85-7.32,3.56v-1C352.53,221,357.3,217,357.3,217Z"/><path id="Shape-139" class="cls-25" d="M354,195.63s9.25-.39,9.15,9.92c0,2.79-2.5,9.82-5.1,11.36l1.34-5.2s1.47.27,1.57-3.77c0-1.55-.41-1.53-.89-1.53-.68,0-.68,1-.68,1h-.77v-1.06a2.48,2.48,0,0,0-2.46-2.51h0l-2.7-.19C354.21,202.18,354,195.63,354,195.63Z"/><path id="Shape-140" class="cls-25" d="M352.78,195.72h1.43l4.2,10.15a11.67,11.67,0,0,1-9.49-3s-2.92,2.77-2.92,5.37a9.16,9.16,0,0,1-1.09-2.46,9.26,9.26,0,0,1-.33-2.66,8.73,8.73,0,0,1,2.91-5.37A8.64,8.64,0,0,1,352.78,195.72Z"/><path id="Shape-153" class="cls-28" d="M342.43,242.2H317.24a.53.53,0,0,0-.48.57h0v.09L321,260.48a1.31,1.31,0,0,0,1.24,1.06h24.61l-3.92-19A.43.43,0,0,0,342.43,242.2Z"/><g id="Group-2" class="cls-29"><path id="Shape-142" class="cls-30" d="M353.72,207c2.21-.19,3,.29,2.6,2s-1,2.6-2.7,2.31a2.66,2.66,0,0,1-2.31-2.89C351.21,207.72,351.6,207.24,353.72,207Z"/></g><g id="Group-3" class="cls-29"><path id="Shape-143" class="cls-30" d="M347.66,207.11c2.12-.1,2.41.38,2.51,1.15a2.79,2.79,0,0,1-2.12,3.09c-1.64.38-2.22-.49-2.7-2S345.55,207.2,347.66,207.11Z"/></g><path id="Shape-144" class="cls-22" d="M344.57,207.74v.4a.1.1,0,0,0,.1.1h0s.2,0,.2.3v.1c0,.3.1.5.1.8.4,1.5,1,2.4,2.3,2.4a1.36,1.36,0,0,0,.6-.1,2.9,2.9,0,0,0,2.3-2.9v-.3c0-.4.2-.5.3-.5h0c.1,0,.3,0,.4.6v.2a2.88,2.88,0,0,0,2.5,2.7l.72.06c1.4,0,2-.51,2.33-2a4.19,4.19,0,0,0,.13-1.27V208c0-.16,0-.34.12-.43h0a.1.1,0,0,0,.1-.1h0V207a.1.1,0,0,0-.1-.1h0a9.68,9.68,0,0,0-2.4-.3h-.8a4.48,4.48,0,0,0-2,.4l-.2.1a3.4,3.4,0,0,1-.9.3,2.05,2.05,0,0,1-.8-.2l-.2-.1a5.78,5.78,0,0,0-1.9-.2h-.9a8,8,0,0,0-2.2.5v.1c0,.1,0,.2.2.2Zm6.8.6c0-.6.2-1.1,2.4-1.2h.3c1.2-.1,1.9.1,2.1.4a3.47,3.47,0,0,1-.06,1.35c-.4,1.5-.64,2.35-1.84,2.45h-.6a2.92,2.92,0,0,1-2.3-3Zm-6-.3c.2-.4.8-.6,2-.7h.3c2.2-.1,2.27.82,2.27,1.42a2.86,2.86,0,0,1-2,2.58,1.36,1.36,0,0,1-.6.1c-1.2,0-1.6-.7-2-2.1a1.48,1.48,0,0,1,0-1.3Z"/><path id="Shape-146-2" data-name="Shape-146" class="cls-24" d="M348.59,222.28s2.5,4.3,4.8,5.1c0,0-2.9,2.1-8.4-3.3C345.09,224,346.09,221.08,348.59,222.28Z"/><path id="Shape-147" class="cls-31" d="M348.72,225a.65.65,0,0,1,.68.64h0a.68.68,0,0,1-1.35,0h0a.66.66,0,0,1,.63-.68Z"/><path id="Shape-148" class="cls-32" d="M347,233.54c-1.16-3.66,1.35-7.8,1.45-8a.25.25,0,0,1,.3-.15h0a.11.11,0,0,1,.08,0h0c.19.1.19.29.1.49,0,0-2.41,4-1.35,7.41.77,2.41-.29,9.44-.29,9.73a.3.3,0,0,1-.29.29h0c-.19,0-.29-.19-.29-.39S347.76,235.79,347,233.54Z"/><path id="Shape-150" class="cls-31" d="M358.07,225.68a.64.64,0,0,1,.58.71.13.13,0,0,1,0,.06.45.45,0,0,1-.19.38.69.69,0,0,1-1,0l0,0a.91.91,0,0,1,0-1A1.26,1.26,0,0,1,358.07,225.68Z"/><path id="Shape-151" class="cls-32" d="M352.19,238.54a16.17,16.17,0,0,0,2.41-5,38,38,0,0,1,3.08-7.32c0-.1.1-.1.19-.19h.29c.2.09.2.28.1.48a36.66,36.66,0,0,0-3.08,7,14.39,14.39,0,0,1-2.51,5.21,6.86,6.86,0,0,0-1.15,2c0,.09-.2.19-.29.19h-.1a.37.37,0,0,1-.2-.46h0C351.32,239.93,351.71,239.16,352.19,238.54Z"/><rect id="Rectangle-path" class="cls-33" x="323.67" y="260.23" width="30.1" height="1.4"/><path id="Shape-154" class="cls-8" d="M341.8,242.82H317.14a.53.53,0,0,0-.48.58h0v.14l4.14,17.33a1.43,1.43,0,0,0,1.26,1.06h24.06l-3.84-18.67A.49.49,0,0,0,341.8,242.82Z"/><path id="Shape-155" class="cls-18" d="M370.2,259.18a3.31,3.31,0,0,0,2.22-3.26c-.1-3.66-.49-10.5-1.35-16.86l-6.55,2.6,1.15,12.72-11.07,5.77-3.66-.77-4.62.19.29,1.06a11,11,0,0,1,1.63.09c1,.2.68,1,.68,1s-2,.19-3.86.29h-3.74l3.07,2.6,4.53,1.06"/><path id="Shape-156" class="cls-8" d="M355.27,259.28c1.83.1,9.92-5.48,9.92-5.48s-1.22-15.54-.64-18,1.9-8.83,4.4-8.64a8.67,8.67,0,0,1,2.31,6.74c-.38,4.24,3.56,25.13-.38,25.42-5.78.48-19.27,7.7-18.79,3.27C352.19,261.4,353.92,259.18,355.27,259.28Z"/><g id="Group-4" class="cls-34"><path id="Shape-158" class="cls-14" d="M367,257.94c3.57.48,2.89-4,3.37-7.22a113.8,113.8,0,0,0,.77-12.91c0-.86.1-1.92.1-3,0,6,3.37,24.06-.38,24.35-5.56.89-11.95,4-15.32,4.53C355.56,262.94,367,257.94,367,257.94Z"/></g><ellipse id="Oval-3" class="cls-21" cx="330.91" cy="251.87" rx="2.5" ry="2.99" transform="translate(-84.75 238.98) rotate(-35.5)"/><polygon id="Shape-145" class="cls-4" points="359.33 207.82 356.77 207.44 356.77 207.04 359.41 207.41 359.33 207.82"/><path class="cls-25" d="M361.49,203.76a7.25,7.25,0,0,0-2.2,4.51,7.66,7.66,0,0,0,1.25,4.11c1,2,1.54,5.41-.74,11.24a.65.65,0,0,1-.2,0,1,1,0,0,0-.43,0l-.29-3.63-.11,3.76-.53.18.15-3.1-.24,3.13-.31.11a18.1,18.1,0,0,1,.23-7.23,9.39,9.39,0,0,0,.39-4,10.67,10.67,0,0,0-.91-2.71,10.6,10.6,0,0,1-.11-6.55l1.38-3.77Z"/><polygon id="Shape-152" class="cls-8" points="337.2 274.46 336.4 277.06 332.6 276.86 333.2 273.86 337.2 274.46"/><path id="Shape-159" class="cls-35" d="M444.4,218.5l.7-5.1"/><path id="Shape-160" class="cls-13" d="M442.9,219.4l2.1-6"/><path id="Shape-161" class="cls-25" d="M424.61,167.44l3.8-.1a6.64,6.64,0,0,1,6.64,6.65v.09l.67,19.08-18.22,1-4.58,1.23a50.58,50.58,0,0,0,3.18-8.42,23.47,23.47,0,0,0,.63-3.11c.24-1.34.65-4.22,1-6.64.84-5.39,1.44-6.53,2.21-7.39A7.65,7.65,0,0,1,424.61,167.44Z"/><path id="Shape-162" class="cls-36" d="M425.85,340s2.75,4.09,3.51,4.18c4.27.57,3.32,3.8,3.32,3.8H420.06a1.11,1.11,0,0,1-.95-1,21.73,21.73,0,0,1,.95-6.55Z"/><path id="Shape-163" class="cls-12" d="M421.77,347.86H420a1.11,1.11,0,0,1-.95-1c0-2.47-.09-2.47.19-3.61A10.33,10.33,0,0,1,421.77,347.86Z"/><path id="Shape-165" class="cls-37" d="M415.6,235.39a197.6,197.6,0,0,0,25-.57l2.76,20.5s4.08,26.48,4.65,29.9,2.46,55,2.46,55l-6.45.28s-2.37-32.65-3.51-40.43c-.57-4-.76-13.47-1.24-14.9-1.13-3.32-9.2-27.05-10.44-30.46-1,10.72-2.75,29-2.75,30.65,0,2.18-.28,54.57-.28,54.57l-6.08.48c-2.46-18.13-3.51-50.68-3.22-54.1.09-.95.28-8.45.28-8.45s-2.94-28.66-2.94-30.84A49.05,49.05,0,0,1,415.6,235.39Z"/><path id="Shape-166" class="cls-38" d="M415.6,235.39a197.6,197.6,0,0,0,25-.57l.67,5.13a37.13,37.13,0,0,0-13.76,1.14,10.65,10.65,0,0,0-6.84,4.93c-1.42,2.66-1.8,6.08-1.9,9.21s.19,6,.29,9c.09,4.46,0,8.92.19,13.38a236.92,236.92,0,0,0,2.56,29.61c.67,4.56,1.9,29,4,32.84l-6.08.47c-2.46-18.12-3.51-50.68-3.22-54.09.09-.95.28-8.45.28-8.45s-2.94-28.66-2.94-30.85A48.78,48.78,0,0,1,415.6,235.39Z"/><path id="Shape-167" class="cls-38" d="M441,276.58a56.23,56.23,0,0,1,1.9,10.44c3,24.78,7.59,53.34,7.59,53.34l-6.45.29s-2.37-32.65-3.51-40.43c-.57-4-.76-13.39-1.24-14.9-1.13-3.33-9.2-27.05-10.44-30.47-.28,3.42-.19-4.37-.09-4.37C429.74,250,440.18,273.55,441,276.58Z"/><path id="Shape-168" class="cls-24" d="M413.51,192.87s12.72-5.79,25.91-.09l-.57,8.73s1.33,4.94,1.61,6.45c.76,4.47-.76,6.17-.76,6.17L441.6,239l-27-1.52s2.28-10.63,1.9-19.55C416.45,214.42,413.51,192.87,413.51,192.87Z"/><path id="Shape-169" class="cls-17" d="M430.5,188.79l2.66,2.09c.19,5.89-2.85,7.31-2.85,7.31l-2-2.28C430.78,194.68,430.5,188.79,430.5,188.79Z"/><path id="Shape-170" class="cls-19" d="M430.31,183.48l.28,8.63a3.79,3.79,0,0,1-3.51,4c-2,.1-4-3.13-4.08-5.31l.95-7.12Z"/><path id="Shape-171" class="cls-13" d="M430.31,183.48l.19,5.41c-.38,1-.39,2-1.91,1.74a11.4,11.4,0,0,1-5.29-3l.74-3.86Z"/><path id="Shape-172" class="cls-18" d="M433.54,180.92c.09,2.94-1.62,8.06-3.61,9.3-.48.28-.38.47-.95.47s-1.14-.47-1.61-.66c-2.57-1.24-5.79-4.27-5.89-7.41l-.17-7.05,12.06-.45Z"/><path id="Shape-173" class="cls-25" d="M422.27,178.9a24.28,24.28,0,0,0,1.2,8.5l-1.5-2.5-2-3.6-.4-10.7,4-.6A45.41,45.41,0,0,0,422.27,178.9Z"/><path id="Shape-174" class="cls-25" d="M425.1,170.29a2.14,2.14,0,0,0-2.1,2.18h0l-2-.7-.1-2.6,4.1-.1Z"/><path id="Shape-175" class="cls-17" d="M428.22,195.91l-1.9,2.37s-3.7-1.33-5.5-7.49l2.46-2.28C423.38,188.51,425.28,194.87,428.22,195.91Z"/><path id="Shape-176" class="cls-36" d="M461.53,347.86H444.07a1.09,1.09,0,0,1-.95-1,21.68,21.68,0,0,1,.95-6.55l6.45-.29,7.5,4.37a3.12,3.12,0,0,1,2.75,1.14A3,3,0,0,1,461.53,347.86Z"/><path id="Shape-177" class="cls-12" d="M445,344.16c1.61.85,2.09,2.18,2.56,3.7H444a1.09,1.09,0,0,1-1-1c0-1.14.09-2.28.19-3.32A9.71,9.71,0,0,1,445,344.16Z"/><path id="Shape-178" class="cls-12" d="M432.59,347.86H420a1,1,0,0,1-.95-1v-.1h13.67A2.44,2.44,0,0,1,432.59,347.86Z"/><path id="Shape-179" class="cls-12" d="M461.53,347.86H444.07a1.09,1.09,0,0,1-.95-1v-.1h18.41"/><path id="Shape-180" class="cls-13" d="M416.55,218c-.1-1.9-.95-8.93-1.81-15.1.76,1.24,3.61-.57,4.18.38,2.28,3.52,1.71,10.92,5.79,12,1.9.48,4.46,0,6.36,0,2.18,0,4.46-.09,6.64-.19.76,0,1.33-.66,1.9-1l.09,1.62a1.91,1.91,0,0,0-.75.09c-4.37.76-13.1,3.42-17.28,1.9-5.31-2-4.55,4.65.67,6.64,5.41,2.09,12.43,1.71,18.12.67l.1,1.33c-2.66-.76-5.79,0-8.73.85-3.89,1.14-9.4,2.85-12.15,6.55a5.5,5.5,0,0,0-1.8,5.22l-3.14-.19A104.21,104.21,0,0,0,416.55,218Z"/><path id="Shape-181" class="cls-17" d="M435.9,197.2l-14.3.7-1.1,15.3-5.2,17v48.1l30.1,1.8-4.1-49.9s-.1-13-.9-17.3C439.6,208.9,435.9,197.2,435.9,197.2Z"/><path id="Shape-182" class="cls-24" d="M440.27,217.93l-1-5-2-20.88s4.17.76,4.84,3.23c.57,1.89,3.13,8.25,4.93,23.06.48,3.61.1,4.46-1.33,5.22s-7.78,1.9-15.28,2.56l.1-5.22Z"/><path id="Shape-183" class="cls-24" d="M410.57,197.43a4.51,4.51,0,0,1,3.22-4.65c3.8-.67,4.27,5.69,4.27,5.69l3.8,18.89,13.48-1a4.88,4.88,0,0,1,1.14,4.08s-10.35,4.65-14,4.74a7.78,7.78,0,0,1-5.41-1.42c-5.6-10.44-6.46-22.49-6.55-26.29"/><path id="Shape-184" class="cls-19" d="M442.08,217.55l-5.51,1.52c-.09-.48-.09-.86-.19-1.33a1.73,1.73,0,0,0-.66-1l4.36-1.24Z"/><path id="Shape-185" class="cls-13" d="M439.7,204.26l-.94-2.75s2.08,4.18,2.27,5c1.62,6.36.38,6,.19,6.64s.76,4.37.76,4.37l-2-2.09-.29.1-.09-1.33a9.44,9.44,0,0,0,.85-5.13C440.18,206.64,439.7,204.26,439.7,204.26Z"/><polygon id="Shape-186" class="cls-19" points="430.4 225.81 428.03 225.62 424.8 225.05 430.5 223.81 430.4 225.81"/><polygon id="Shape-187" class="cls-17" points="435.91 200.28 434.29 191.16 433.15 190.88 434.58 200.28 435.91 200.28"/><polygon id="Shape-188" class="cls-17" points="422.34 200.85 419.01 191.16 420.15 190.88 423.57 200.94 422.34 200.85"/></g></g></g></g></g></g></g><rect class="cls-1" x="223.06" y="126.53" width="6.19" height="8.33"/><rect class="cls-8" x="233.88" y="126.53" width="6.19" height="8.33"/><rect class="cls-8" x="223.06" y="139.6" width="6.19" height="8.33"/><rect class="cls-8" x="233.9" y="139.8" width="6.19" height="8.33"/><rect class="cls-8" x="233.9" y="153.08" width="6.19" height="8.33"/><rect class="cls-8" x="244.25" y="126.73" width="6.19" height="8.33"/><rect class="cls-8" x="255.06" y="126.73" width="6.19" height="8.33"/><rect class="cls-8" x="244.25" y="139.8" width="6.19" height="8.33"/><rect class="cls-8" x="223.06" y="166.67" width="6.19" height="8.33"/><rect class="cls-8" x="223.06" y="153.14" width="6.19" height="8.33"/><circle class="cls-39" cx="256.7" cy="302.55" r="9.7"/><circle class="cls-11" cx="256.7" cy="302.55" r="2.38"/></g></g><rect class="cls-6" x="255.68" y="215.16" width="8.8" height="4.7"/><rect class="cls-6" x="255.68" y="228.66" width="8.8" height="4.7"/><rect class="cls-6" x="255.68" y="242.16" width="8.8" height="4.7"/><rect class="cls-6" x="255.68" y="269.16" width="8.8" height="4.7"/><rect class="cls-6" x="255.68" y="282.66" width="8.8" height="4.7"/><rect class="cls-6" x="255.68" y="296.16" width="8.8" height="4.7"/><rect class="cls-6" x="255.68" y="309.66" width="8.8" height="4.7"/><rect class="cls-6" x="255.68" y="323.16" width="8.8" height="4.7"/><rect class="cls-6" x="255.68" y="336.66" width="8.8" height="4.7"/><path id="Shape-7" class="cls-40" d="M246.41,362.76l-3.2-1.84-5.72-1.07a13.46,13.46,0,0,0-1,7h13.57A5.61,5.61,0,0,0,246.41,362.76Z"/><path id="Shape-9" class="cls-40" d="M275.38,366.83a4.26,4.26,0,0,0-4.07-3.68l-8.53-3.2h-5.5a14.36,14.36,0,0,0-1,7l19.09-.1"/><path id="Shape-11" class="cls-17" d="M247.33,257.21c-2.81-.39-5.18-1.39-8-1.58h-.09c0,1.84-.68,4.26-.68,7.36,0,10.76.09,32.56.09,32.56l-1.86,62.56,5.84,1.59,5.62-58.82,4.36-29,3,29,1.14,57.23,6.71,1.11,1.16-61.54-.35-42.26a8.79,8.79,0,0,1-1.59.39C257.43,256.76,252.75,257.79,247.33,257.21Z"/><path id="Shape-12" class="cls-13" d="M247.59,257.29a60.48,60.48,0,0,1-8.33-1.66l-.07,1.19c0,1.84-.61,4.48-.61,7.59,0,10.75-.3,32.86-.3,32.86l-1.48,61.19,2.63,0c.48-5.33,1.08-32.08,1.75-37.31,1.26-9.59,1.17-19.19,1.36-28.78.1-4.55.39-9.11.78-13.66.29-3.3.38-6.88,2.13-9.69,3.78-6.5,13-6.11,19-8.14.29-.1-.29,0,0,0l-.15-5.5a7.39,7.39,0,0,1-1.59.39C257.28,256.78,253,257.87,247.59,257.29Z"/><path id="Shape-13" class="cls-41" d="M261.08,312a85.28,85.28,0,0,0-7.9-37.8c0-.1-.1-.2-.1-.3s-.2-.3-.2-.4l-.1.1,3,29.2.71,53.18,5.19-.25c-.3-2,.2,3.37.1,1.47C261.18,350.46,261.18,318.86,261.08,312Z"/><path id="Shape-15" class="cls-8" d="M266.66,218.86c-2-5.72-2.81-5.72-4.46-6.49-14.63-7.66-23.16.09-27.23,2.13-.77.39-1.45,3.59-1.35,4.55,1.35,11.83,4.26,18.22,4.84,23.55.78,6.88,1,13.12,1,13.12,10.46,3.68,24.77-.3,24.77-.3s.73-1.67,0-16.79C264.06,233.69,268.4,223.71,266.66,218.86Z"/><path id="Shape-16" class="cls-42" d="M265.87,226.75c-.3-.1-1.63.71-3.3,1.36-2.44.86-3.22,1.19-4.73,1.84-3.25,1.13-10.16,4.89-13.56,5.28-.59.09-1-8.83-1.6-10.48v1.18c-.29,1.17-2.81,14.35-4.27,15.12.1.49.1,1,.2,1.45a22.09,22.09,0,0,1,.19,2.43,92.49,92.49,0,0,1,.4,10.66c.19.09.29.07.48.17-.58-5.23.38-6.51,2.32-11.45,3.87-2.23,6.49-3.39,8.33-3.78,4.85-1,13-3.3,14.25-3.49-.1-.68.48-.26.63,1.36-.1-2.23-.73-4.36-.15-6.5C264.82,232,266,226.75,265.87,226.75Z"/><polygon class="cls-43" points="251.09 219.63 251.94 230.13 252.16 232.81 255.03 257.03 251.09 219.63"/><path id="Shape-17" class="cls-18" d="M242.09,237.42s0-20.21-1.11-21.56c-2.13-2.43-5.23-2.33-6.39-1.07s-1,3.68-1,4.65c-.59,8.53,2.32,26.88,5.33,26.79.87,0,23.45-9.64,23.45-9.64l-.39-4.31Z"/><path id="Shape-18" class="cls-19" d="M245.34,201.22l8,.68-.52,7c0,.18.55.5.52.74-.15,1.07-.86,7.84-1.58,8.48l-.62.65c-.05.08-.07.15-.09.16h0a3.66,3.66,0,0,0-.61-.27c-.59-.19-1-.87-1.71-.92-2.32-.29-4.26-6.3-4-8.63Z"/><path id="Shape-19" class="cls-18" d="M242.53,190.86,257,192v5.33c-1.36,7.85-8.82,10.56-12.6,11.63a2.37,2.37,0,0,1-2.32-.78c-.68-.68-.2-6.1-.1-8.62Z"/><path id="Shape-20" class="cls-44" d="M253.29,204.33l-.1,1a30.21,30.21,0,0,1-2.81,2.23,8,8,0,0,1-2.52,1.07,18.37,18.37,0,0,1-2.32.48c-.2,0-.39.1-.68.1v-.29a7.15,7.15,0,0,0,.77-.29l1.36-.49a3.42,3.42,0,0,0,1.36-.58A22.8,22.8,0,0,0,253.29,204.33Z"/><path id="Shape-21" class="cls-45" d="M254.55,191.44l.38,2.13a1.17,1.17,0,0,0-1.16-.68,1.84,1.84,0,0,0-.77.1,3,3,0,0,1-.78.19,29.33,29.33,0,0,1-4.07.58,6.25,6.25,0,0,1-2.32-.19,8.55,8.55,0,0,1-1.65-.68c-.2-.1-.49-.29-.68-.39a1.92,1.92,0,0,0-.77-.38,2,2,0,0,1,.09-.78v-.64c0-.1,2.72,1.45,3.3,1.65a11.65,11.65,0,0,0,1.64.19,6.29,6.29,0,0,0,2.33-.1C251.74,192,253,191.82,254.55,191.44Z"/><polygon id="Shape-22" class="cls-46" points="256.49 355.98 256.58 358.4 264.63 358.01 264.53 355.59 256.49 355.98"/><path id="Shape-25" class="cls-25" d="M254.45,196.57c.19-1.35.29-3.49-1-4.26-.77-.58-1.84-.19-2.81.1a10.41,10.41,0,0,1-7.07-.78,1.48,1.48,0,0,1-.87-.68c-.2-.19-.2-.58-.39-.77l-.65-6.7c1.06,1.36,4.62,2.53,6.36,2.82s2.91-.19,4.66-.19a5.13,5.13,0,0,1,3.78,1.74c1.16,1.46,1.16,3.49,1.16,5.43-.2,3.87-.87,7.94-3.2,10.95a2.79,2.79,0,0,1-.77.68.72.72,0,0,1-1-.2,1,1,0,0,1,0-1.06c.58-1.07,1.26-1.46,1.55-2.81"/><polygon id="Shape-26" class="cls-18" points="237.35 358.46 237.15 360.96 243.45 360.96 243.85 358.46 237.35 358.46"/><polygon id="Shape-27" class="cls-19" points="237.1 358.5 237.01 360.92 239.24 360.92 239.43 358.5 237.1 358.5"/><polygon id="Shape-28" class="cls-18" points="256.97 358.4 256.97 360.63 264.14 360.34 264.14 358.01 256.97 358.4"/><polygon id="Shape-29" class="cls-19" points="256.97 358.4 256.97 360.63 262.69 360.44 262.4 358.11 256.97 358.4"/><path id="Shape-30" class="cls-8" d="M273.18,229.66s-9.7-18.3-11.4-18.7c-3.2-.8-5.8,1-6.1,2.8s1.3,3.7,1.9,4.5c4.5,7.6,9.3,14.7,13.7,19,.7.7,21.3-.5,21.3-.5l.8-3.9Z"/><rect class="cls-47" x="264.63" y="221.19" width="33.92" height="26.26"/><g class="cls-48"><path class="cls-4" d="M294.38,231.23l5.2,6.4v9h-21.7l.8-20.2C287,231,282.38,230.43,294.38,231.23Z"/></g><rect class="cls-49" x="264.63" y="222.93" width="12.89" height="24.52"/><rect class="cls-4" x="268.7" y="221.19" width="3.78" height="9.3"/><polyline class="cls-50" points="298.54 221.19 278.48 222.16 277.51 247.45"/><g class="cls-51"><rect class="cls-1" x="289.92" y="223.32" width="7.17" height="4.65"/></g><path id="Shape-34" class="cls-18" d="M261.88,230.91l4.25-1.78,4.9-.5c.1,1.3-1.5,1.9-2.5,2a.73.73,0,0,0-.75.71.71.71,0,0,0,.05.29l5.2.3c.9.1,2-.6,2.3-.6a.94.94,0,0,1,1,.88v.42l-2.9,2.6-4.6,1.9-7.2-1.5Z"/><path id="Shape-35" class="cls-52" d="M258,188.36v1.3a98.66,98.66,0,0,1-16.3-.8v-1.3C254.38,188.76,258,188.36,258,188.36Z"/><polygon id="Shape-22-2" class="cls-46" points="236.52 356.08 236.43 358.5 244.47 358.5 244.57 356.08 236.52 356.08"/><path class="cls-8" d="M232.68,216a45.62,45.62,0,0,0-1,8.15c-.1,1.81.22,6.78-.1,8.76a7.67,7.67,0,0,0,2.59.57c2.45.51,5.93-.18,7.83-.09.08-2.07,0-7.87-.06-10.22-.11-2.77-.35-5.35-.65-7.71-.67-2.06-.72-2.78-2.88-2.93C236.62,212.49,233.74,214.52,232.68,216Z"/><path class="cls-53" d="M259,219.1a30.67,30.67,0,0,0-.88-3.55,46.45,46.45,0,0,0-2.91-6.38l-1.93,7.58L251,218.92a7.76,7.76,0,0,1,3.72-.85,6.69,6.69,0,0,1,1.89.21C258,218.59,258.69,219.1,259,219.1Z"/><path class="cls-53" d="M251.09,218.92l-8.35-8.66-.62.38a42.87,42.87,0,0,0,.9,11.63,8.6,8.6,0,0,1,8-3.39Z"/><path class="cls-8" d="M252.86,208.89a17.49,17.49,0,0,1-1.77,10,5.41,5.41,0,0,1,2.6-1.81c1.65-.53,4.91,1.84,5.35,2-.63-2.59-2.81-7.48-3.75-9.93-.42-.23.4,0-.38-.14A7.41,7.41,0,0,0,252.86,208.89Z"/><path class="cls-8" d="M251.09,218.92a14.15,14.15,0,0,1-5-5.25,13.55,13.55,0,0,1-1.39-3.88,5.28,5.28,0,0,0-1.53.21c-.87.27-.52.29-.86.59.16,3.66.09,8.43.8,11.57.17-.29,1.51-3.34,3.75-3.75A6.41,6.41,0,0,1,251.09,218.92Z"/><circle class="cls-43" cx="253.65" cy="227.94" r="0.36"/><circle class="cls-43" cx="255.03" cy="241.2" r="0.36"/><circle class="cls-43" cx="256" cy="249.02" r="0.36"/><rect class="cls-6" x="488.48" y="319.44" width="23" height="12.9"/><rect class="cls-2" x="514.48" y="271.04" width="5.9" height="9.3"/><path id="Shape-73" class="cls-25" d="M489.58,220.24a6.38,6.38,0,0,1,3.72-.49,5.45,5.45,0,0,1,3.18,2l-3.28,3.42c-.12.4-.31,1.05-.5,1.85-1.34,5.64-.14,8.24-1.59,11.7a11,11,0,0,1-2.68,3.79C486.35,230.75,486.64,221.6,489.58,220.24Z"/><path id="Shape-74" class="cls-54" d="M489.58,220.24a5.48,5.48,0,0,1,5.4.2,3.07,3.07,0,0,0-3,1.4c-2.4,3.1-2.2,7-1.5,10.7a30.26,30.26,0,0,0,1,4.1l-3.11,2.54C487.77,237.58,485.48,222.24,489.58,220.24Z"/><polyline id="Shape-75" class="cls-18" points="522.38 277.64 514.88 277.24 509.48 257.04 518.28 259.44 522.38 277.64"/><polyline id="Shape-76" class="cls-55" points="522.38 277.64 514.88 277.24 509.48 257.04 518.28 259.44 522.38 277.64"/><path id="Shape-77" class="cls-18" d="M487.29,288.09h19.3L509,297a41.57,41.57,0,0,1,1.19,10l-.07,43.85-2,55.69h-4.58s-2-19.47-3-25.56S502,352.59,502,352.59l-4.57-44.94-1.74-.18-1.65,44-2.56,55.63H487s-2-19.47-3-25.56,1.56-28.33,1.56-28.33l-3.21-43.9a26.23,26.23,0,0,1,1.28-11.56Z"/><path id="Shape-78" class="cls-17" d="M481.75,364.46c.1-1.9-.05-1.62-.05-5.72,0-15-.92-10.9-1.12-23.5-.1-5.7.1-10.5,0-11.8a9,9,0,0,1,.8-4.6c-.4-5.7,1.6-11,1-16.5l3.5-14.2,21.8.3,3.9,14c.8,4.4.4,8.6.2,13.1a41.69,41.69,0,0,1,.1,5c-.1,3,.5,7.4.4,12.3-.1,4.5-.51-.23-.91,31.77"/><path id="Shape-79" class="cls-19" d="M481.68,245.44l13-4h3.9v49.1l-12.8-2.5-2.6-30.4-5-7.1A4.89,4.89,0,0,1,481.68,245.44Z"/><path id="Shape-80" class="cls-13" d="M494.78,241.54h2.3c-1.2.6-2.5,1.2-3.8,1.7-2.2.9-4.1,1.2-6.4,1.9a3.19,3.19,0,0,0-1.8,1.2l-.5-.1c-1.4,0-2.9-.1-4.3-.2a4.77,4.77,0,0,1,1.5-.6Z"/><polygon id="Shape-81" class="cls-56" points="485.08 252.24 479.48 276.84 471.48 278.34 475.78 256.04 485.08 252.24"/><polygon id="Shape-82" class="cls-19" points="502.88 237.44 501.18 249.64 492.68 248.24 494.58 233.34 502.88 237.44"/><path id="Shape-83" class="cls-57" d="M501.28,216.94l2.9.5c3.8.5,5.7,2.1,6.5,4.2a10.3,10.3,0,0,0-5.4-1.5,11.81,11.81,0,0,0-8.2,3.3c-2.2,2.4-2.7,5.6-3.3,8.8a4.36,4.36,0,0,0,.7,3.5v.8s-3.3-4.8-1.6-13.3C493.48,219.44,497.68,216.34,501.28,216.94Z"/><path id="Shape-84" class="cls-19" d="M511.78,245.44a4.69,4.69,0,0,1,3.5,5.1l-5,7.2L507,288l-12,2.5V241.4l7.3,1.4Z"/><polygon id="Shape-85-2" class="cls-23" points="483.08 259.24 482.88 259.24 483.08 258.74 483.08 259.24"/><path id="Shape-86" class="cls-17" d="M482.08,265.54l-8.31-2.71,2.63-10.91a11.68,11.68,0,0,1,3.76-6c-.2,1.3-.28,2.45.72,3.15,9.8,8.2,24,6.5,35.6,2.6l2.7,9.2-8.3,2.5-.8-3-2.3,21.5c0,2.7,4.2,65.5,4.2,65.5-15.3,5.9-31.4.9-31.4.9,1.2-3.8,4.5-65.1,4.5-65.1l-1.7-22.4Z"/><path id="Shape-87" class="cls-13" d="M482.23,265.56,474,262.79l2.7-10.9a10.83,10.83,0,0,1,3.3-6,3.4,3.4,0,0,0,1.3,3.3,26.47,26.47,0,0,0,15.2,5.8c-.1.2-.1.4-.2.6-.8,10.5-2.3,21.2-1.3,31.1v.3c-.1,5.6-.7,57.9-.2,63.5a58.83,58.83,0,0,1-13.9-2c1.2-3.8,4.5-65.1,4.5-65.1l-1.7-22.5Z"/><path id="Shape-88" class="cls-21" d="M482.08,266.1l-8.5-2.9,2.7-10.9c.5-2.9,2.5-6.4,5.5-7.1l7.9-2.3s-.5,1.7,1.7,4.7a13.65,13.65,0,0,0,3.1,3.2c.3,10.5-.6,21.5-1.3,32-.5,7.1-1,64.1-1,71.2a19.07,19.07,0,0,1-11.5-5.2c.3-1.1,0-5.9-.1-12.7-.1-3.8-.1-7.7,0-11.5a33.81,33.81,0,0,1,.2-4.5,29.46,29.46,0,0,0-.1-4.2c-.1-1.4-.3-2.7-.4-4.1-.1-1.8.1-3.6.1-5.5a21.7,21.7,0,0,1,1.4-6.8c.5-1.7,1.5-4.2,2.2-6.3.2-.4.3-.8.5-1.3v-.5c.3-4.6.6-7.7.6-7.7l-1.6-22.5Z"/><path id="Shape-89" class="cls-21" d="M502.28,250.8a17.44,17.44,0,0,0,2.6-2.1,7.32,7.32,0,0,0,1.2-5l6,1.6c2.2.5,3.8,3,4.3,5.5l3.2,10.8-8.3,2.5-.8-3-2.3,21.5c.4,2.7-.2,5.8,1.7,12.2.5,1.8,1.4,2.8,1.9,5.8a48.35,48.35,0,0,1,.7,5.5c.2,3.4,0,7.8.1,11.5.3,14.4-.1,30.5-.1,30.5-3.9,1.5-6.4,4.8-10.2,5.1.1-7.1-1.3-63.2-.8-70.3A312.53,312.53,0,0,0,502.28,250.8Z"/><path id="Shape-90" class="cls-15" d="M481.52,245.25l9.47-2.78-1.35,1.23c-.2,0-3,1.3-3.16,1.3-.9.2-5.68,2.07-7.09,4.61-3.17,5-3.21,7.49-4.21,14.09l-1.7-.6,2.7-10.9C476.78,249.5,478.62,246,481.52,245.25Z"/><path id="Shape-91" class="cls-15" d="M483.38,260.74c.2-.4,4.3,19.4,3.9,28a79.73,79.73,0,0,1-2.7,12c-.7,1.9-1.7,3.9-1.7,6.2a38.76,38.76,0,0,0,.5,9c.8,3.8,1.2,32.2.6,35-3.3-1.8-3.4-2.5-3.4-2.5.3-1-.1-6.5-.1-13.7,0-4.6,0-10,.3-15.3a20.9,20.9,0,0,0-.1-2.5c-.2-3.1-.8-5.9-.4-9.8.1-1.1.1-2.9.3-4a29.34,29.34,0,0,1,.8-3.2c.5-1.7,1.2-3.9,1.9-5.6.3-.7.5-1.4.8-2a5.74,5.74,0,0,0,.5-1.2c.1-1.4.1-2.7.2-3.8.2-2.5.3-3.9.3-3.9Z"/><path id="Shape-92" class="cls-18" d="M476.58,274.74c3.3-.6,18.5,1.9,18.5,1.9l.7,4.6-16.3,1.4c-2.5.1-9.3-1.2-7.8-4.7A7.52,7.52,0,0,1,476.58,274.74Z"/><path id="Shape-93" class="cls-19" d="M522.38,278.14c-.4,3.9-5.9,3.3-7.8,1.6-1.7-1.5-6.3-6.8-6.3-6.8l-7.9-1.1.2-2.7a1.38,1.38,0,0,1,1-1.3l3.8-1.3a1.1,1.1,0,0,1,.8,0c2,.7,11.3,4.1,13.6,6.2a9,9,0,0,1,2.6,5.4"/><path id="Shape-94" class="cls-18" d="M508.88,270.74c3.1,2.4,9.5,6.3,13.5,7.4-.3,3.3-5,3.7-7.8,1.6-1.8-1.4-6.3-6.8-6.3-6.8l-4.7-.7c1.3-.6,2.6-1.6,4-1.7C507.88,271.24,508.28,270.24,508.88,270.74Z"/><path id="Shape-95" class="cls-18" d="M499.68,272.94l-1.7,3h8.8a1.71,1.71,0,0,1-.3,1.4,1.64,1.64,0,0,1-1.3.6l-2.3,3.6a2.65,2.65,0,0,1-2,1.2l-2.7-.4a5.67,5.67,0,0,1-4.2-1.9l.3-3.9C495,275.14,499.68,272.94,499.68,272.94Z"/><path id="Shape-96" class="cls-4" d="M503.68,268.14l4.9.1a1.13,1.13,0,0,1,1.1,1.16v0a.37.37,0,0,1-.1.3l-3.2,6.1h-8.5l3.8-6.7A2.33,2.33,0,0,1,503.68,268.14Z"/><path id="Shape-97" class="cls-12" d="M504.28,268.74l4.7.1a.63.63,0,0,1,.6.5,1.1,1.1,0,0,1,0,.8l-2.8,5.7H499l3.3-6A2.44,2.44,0,0,1,504.28,268.74Z"/><path id="Shape-98" class="cls-18" d="M475.08,277.64a28,28,0,0,0-2.9.1,1.93,1.93,0,0,0,1,1.7,2.88,2.88,0,0,0,.7.5c2.3,1.9,16.3,1.3,21.1,1.3l-15.6,1.4c-2.4.1-8.7-1.1-8-4.3l2.94-14.94,2.49.9S474.68,276.44,475.08,277.64Z"/><path id="Shape-99" class="cls-58" d="M520.77,412.93H503.13c-.2,0-.21-.26-.29-.61a15.73,15.73,0,0,1,.52-5.71.57.57,0,0,1,.52-.35l4.16-.09h0l8.83,3.3a4.16,4.16,0,0,1,3.9,3.46"/><path id="Shape-101" class="cls-44" d="M493.28,243.24l.7-.7c.1-.1.3-3.9.4-3.8,4.2,6.5,5.6,7.9,8,6.9a10.69,10.69,0,0,0,2.2-2.1l-5.8-2-4.5-5.4Z"/><path id="Shape-102" class="cls-18" d="M495.18,221.44l15.3,2.5-1.5,10.3c-.5,3.5-4.7,9.6-6.9,10.8a2,2,0,0,1-2.5-.1c-2.7-2-6.4-9.8-5.9-13.2Z"/><path id="Shape-103" class="cls-25" d="M501.28,216.94l2.9.5c8.6,1.2,7.2,8,6.6,11.8a24.19,24.19,0,0,1-2.5-1.9,13.68,13.68,0,0,1-1.4-1.9,10.28,10.28,0,0,1-6.2,1.6,3.63,3.63,0,0,0-3.5,3c-.2.8-1-.7-1.1-.6-2.1,2.3-1.8,7-1.8,7s-3.3-4.8-1.6-13.3C493.48,219.44,497.68,216.34,501.28,216.94Z"/><path id="Shape-104" class="cls-4" d="M488.28,271.61h-.2a4,4,0,0,1-1.3-1.9c-.4-1.3-.18-9.6.62-14.2,0-.1.18-.2.18-.2h.3a.35.35,0,0,1,.2.1c0,.1.06.28.06.38-.8,4.7-1.06,12.72-.76,13.82a3.07,3.07,0,0,0,1,1.5.43.43,0,0,1,.1.5Z"/><path id="Shape-105" class="cls-4" d="M488,270.91a3.3,3.3,0,0,1-1.4,0,.45.45,0,0,1-.3-.5c0-.2.3-.4.5-.4a2.16,2.16,0,0,0,1.9-.5c2.1-1.5,3-9.88,3.23-13,0-.1.17-.42.27-.42a.3.3,0,0,1,.4,0,.37.37,0,0,1,.14.35c-.1,1.2-.74,11.85-3.54,13.85A3.2,3.2,0,0,1,488,270.91Z"/><path id="Shape-106" class="cls-4" d="M489.68,271.71a.75.75,0,0,1-.9.4c-.4-.1-.7-.4-.6-.8a.75.75,0,0,1,.9-.4h0A.76.76,0,0,1,489.68,271.71Z"/><path id="Shape-107" class="cls-4" d="M486.88,270.51c-.1.4-.5.5-.9.4a.76.76,0,0,1-.6-.8.78.78,0,0,1,.4-.4.45.45,0,0,1,.5,0C486.68,269.81,487,270.21,486.88,270.51Z"/><path id="Shape-108" class="cls-12" d="M490.81,249.82h-.1c-.2,0-.3-.19-.3-.39h0c0-.2.35-5.31,2.63-7.93.1-.1.1-.1.2-.1s.2,0,.2.1a.45.45,0,0,1,0,.5c-2.08,2.42-2.44,7.42-2.44,7.52S490.91,249.82,490.81,249.82Z"/><path id="Shape-109" class="cls-12" d="M492.38,257.51h-.1c-.1,0-.2-.1-.3-.2a.37.37,0,0,1-.1-.3c.2-2.3,0-6.2-1.3-6.7a.43.43,0,0,0-.5.1c-1,.6-1.6,3.7-1.9,5.5,0,.1-.1.2-.1.3a.37.37,0,0,1-.3.1c-.1,0-.2-.1-.3-.2a.37.37,0,0,1-.1-.3c0-.5.6-5,2.2-6.1a1.32,1.32,0,0,1,1.2-.2c2.4.9,1.9,7,1.9,7.6C492.68,257.31,492.58,257.51,492.38,257.51Z"/><path id="Shape-110" class="cls-12" d="M504.39,242.9a35.73,35.73,0,0,1,3.89,6.4c1.4,3.2-1.7,10.2-1.7,10.2l-.5-.1s3.1-6.9,1.7-10.1a25.69,25.69,0,0,0-3.83-5.89Z"/><path id="Shape-111" class="cls-4" d="M504.25,260.22a2.6,2.6,0,0,0,.4,3.3,1.65,1.65,0,0,0,1.5.5,2,2,0,0,0,1.3-.9,2.6,2.6,0,0,0-.4-3.3,1.75,1.75,0,0,0-2.47.07l0,0Z"/><path id="Shape-112" class="cls-7" d="M505.15,260.62a1.7,1.7,0,0,0,.3,2.2,1.24,1.24,0,0,0,1.7,0c.1-.1.1-.2.2-.3a2,2,0,0,0-.2-2.2,1.19,1.19,0,0,0-1-.3A1,1,0,0,0,505.15,260.62Z"/><polygon id="Shape-113" class="cls-59" points="506.82 364.61 505.99 406.17 508.04 406.17 510.08 364.61 506.82 364.61"/><polygon id="Shape-114" class="cls-60" points="489.39 364.61 489.39 406.64 491.72 406.64 493.46 364.61 489.39 364.61"/><path id="Shape-115" class="cls-58" d="M487.54,406.64h4.18l5.22,3.5A4.56,4.56,0,0,1,501,413a.83.83,0,0,1-.4,1H485.85a21.41,21.41,0,0,1,.79-6.8A1,1,0,0,1,487.54,406.64Z"/><rect class="cls-8" x="545.38" y="198.33" width="4.79" height="7.55"/><rect class="cls-8" x="556.21" y="198.33" width="4.79" height="7.55"/><circle class="cls-61" cx="136.95" cy="308.05" r="9.7"/><circle class="cls-11" cx="136.95" cy="308.05" r="2.38"/></g></g><polygon class="cls-18" points="423.91 175.52 424.13 171.7 424.46 175.6 426.6 175.6 426.6 172.12 426.96 175.55 427.42 175.66 427.42 172.63 427.63 175.07 427.63 176.11 423.91 175.52"/><path class="cls-25" d="M359.41,199a10.63,10.63,0,0,1,3.23,4.7c.49,1.55.48,1.22,1.16,3.68,1,3.69.38,5,.24,5.7a2.34,2.34,0,0,0,0,.84c.08,1.41.62,1.85.46,3.3-.07.64-.2.7-.29,1.29a6.06,6.06,0,0,0,.65,3.62,6.15,6.15,0,0,0-1.93-1.76,5.8,5.8,0,0,0-1.08-.48c0,.06-.17,2.21-.21,2.27-.93,1.39-1.35.84-2.16,1.87l-.2-9.21,1.76-3.74C360.93,206.3,359.48,203.84,359.41,199Z"/><path class="cls-1" d="M494.35,219.82a4.52,4.52,0,0,0-2.07,1.31,5.17,5.17,0,0,0-1.19,1.88,8.51,8.51,0,0,0-.33,3.37,5.79,5.79,0,0,0,.7,2.28,3.69,3.69,0,0,0,.94,1.2,17.08,17.08,0,0,1-.1-5.57A8.54,8.54,0,0,1,494.35,219.82Z"/></g></g></svg>